<svg id="Layer_1" data-name="Layer 1" xmlns="http://www.w3.org/2000/svg" viewBox="0 0 74.16 108.26"><defs><style>.cls-1{fill:#ffcd67;}.cls-2{fill:#4b5eaa;}.cls-3{fill:#56c5d0;}</style></defs><path class="cls-1" d="M24.93,19.82,48.07,43,60.93,30.1A17.12,17.12,0,0,0,36.73,5.89L23,19.65A1.52,1.52,0,0,1,24.93,19.82Z" transform="translate(-0.93 -0.9)"/><path class="cls-2" d="M11.07,80a17.11,17.11,0,0,0,24.2,24.2L48.08,91.36l-24.2-24.2Z" transform="translate(-0.93 -0.9)"/><path class="cls-3" d="M60.15,55,48.08,43,24.94,19.82a1.52,1.52,0,0,0-2-.17L11.71,30.92a17,17,0,0,0,0,24L23.88,67.16h0l.05,0h0L48.08,91.36,60.14,79.3A17.21,17.21,0,0,0,60.15,55Z" transform="translate(-0.93 -0.9)"/><path class="cls-1" d="M67.69,53.14a3,3,0,0,0,4.55-.46l.32-.56a19.33,19.33,0,0,0,.11-18.94h0a2.8,2.8,0,0,0-4.42-.62L57.68,43.13Z" transform="translate(-0.93 -0.9)"/><path class="cls-2" d="M6.77,59.07a2.33,2.33,0,0,0-3.59.37l-.26.44A15.27,15.27,0,0,0,2.84,74.8h0a2.21,2.21,0,0,0,3.49.49L14.65,67Z" transform="translate(-0.93 -0.9)"/><circle class="cls-2" cx="20.49" cy="41.48" r="4.89"/></svg>