<svg width="32" height="32" viewBox="0 0 32 32" fill="none" xmlns="http://www.w3.org/2000/svg">
<path d="M22.0029 4.00001C20.8388 3.99801 19.6902 4.2677 18.6486 4.78762C17.607 5.30755 16.7011 6.06336 16.0029 6.99494C15.0574 5.73687 13.7402 4.808 12.2376 4.33976C10.7351 3.87153 9.12341 3.88764 7.63055 4.38582C6.1377 4.884 4.8393 5.83901 3.91909 7.11574C2.99888 8.39246 2.50346 9.92623 2.50293 11.5C2.50293 20.4829 14.983 27.575 15.5143 27.8725C15.6636 27.9561 15.8318 28 16.0029 28C16.174 28 16.3423 27.9561 16.4916 27.8725C18.7869 26.5282 20.9412 24.9563 22.9219 23.1808C27.2887 19.2506 29.5029 15.3206 29.5029 11.5C29.5007 9.51158 28.7098 7.60523 27.3037 6.1992C25.8977 4.79316 23.9914 4.00226 22.0029 4.00001Z" fill="#E63946"/>
</svg>
