<svg width="32" height="32" viewBox="0 0 32 32" fill="none" xmlns="http://www.w3.org/2000/svg">
<path d="M27.3455 12.9625L17.3446 3.87054C16.9773 3.53417 16.4973 3.34762 15.9992 3.34766C15.5011 3.34769 15.0211 3.53431 14.6538 3.87072L4.65467 12.9625C4.44867 13.1501 4.28405 13.3786 4.17132 13.6334C4.0586 13.8882 4.00026 14.1637 4.00001 14.4423V25.9542C3.99428 26.4568 4.17259 26.9442 4.50134 27.3244C4.68863 27.5373 4.91926 27.7077 5.17778 27.8242C5.43629 27.9407 5.71672 28.0006 6.00026 27.9999H11.9956C12.2608 27.9999 12.5152 27.8945 12.7027 27.707C12.8903 27.5194 12.9956 27.2651 12.9956 26.9999V20.999C12.9956 20.7337 13.101 20.4794 13.2885 20.2918C13.476 20.1043 13.7304 19.999 13.9956 19.999H17.9956C18.2608 19.999 18.5152 20.1043 18.7027 20.2918C18.8903 20.4794 18.9956 20.7337 18.9956 20.999V26.9999C18.9956 27.2651 19.101 27.5194 19.2885 27.707C19.476 27.8945 19.7304 27.9999 19.9956 27.9999H26.0028C26.3314 28.0042 26.6556 27.9243 26.9445 27.7679C27.2635 27.5957 27.53 27.3405 27.7158 27.0293C27.9016 26.718 27.9998 26.3623 28 25.9999V14.4424C27.9997 14.1638 27.9414 13.8883 27.8287 13.6335C27.716 13.3787 27.5514 13.1502 27.3455 12.9625Z" fill="#3A86FF"/>
</svg>