<svg width="32" height="32" viewBox="0 0 32 32" fill="none" xmlns="http://www.w3.org/2000/svg">
<path d="M21.9995 14.5C21.9995 15.9834 21.5596 17.4334 20.7355 18.6668C19.9114 19.9001 18.7401 20.8614 17.3696 21.4291C15.9992 21.9968 14.4912 22.1453 13.0363 21.8559C11.5814 21.5665 10.2451 20.8522 9.19618 19.8033C8.14729 18.7544 7.43298 17.418 7.14359 15.9632C6.8542 14.5083 7.00273 13.0003 7.57038 11.6299C8.13804 10.2594 9.09933 9.08809 10.3327 8.26398C11.5661 7.43987 13.0161 7 14.4995 7C16.4879 7.00225 18.3943 7.79315 19.8003 9.19919C21.2063 10.6052 21.9972 12.5116 21.9995 14.5ZM28.7059 28.7072C28.5184 28.8948 28.264 29.0001 27.9987 29.0001C27.7335 29.0001 27.4791 28.8948 27.2916 28.7072L21.8887 23.3044C19.6163 25.2122 16.695 26.1692 13.7342 25.9756C10.7733 25.7821 8.00148 24.4531 5.99666 22.2657C3.99183 20.0783 2.90881 17.2014 2.97344 14.235C3.03807 11.2685 4.24536 8.44152 6.34355 6.34351C8.44173 4.24551 11.2688 3.03846 14.2353 2.97409C17.2018 2.90972 20.0786 3.99299 22.2658 5.998C24.453 8.00301 25.7818 10.775 25.975 13.7358C26.1683 16.6967 25.2111 19.6179 23.303 21.8902L28.7059 27.293C28.8934 27.4806 28.9988 27.7349 28.9988 28.0001C28.9988 28.2653 28.8934 28.5197 28.7059 28.7072ZM14.4995 24C16.3784 24 18.2151 23.4428 19.7774 22.399C21.3397 21.3551 22.5573 19.8714 23.2763 18.1355C23.9954 16.3996 24.1835 14.4895 23.8169 12.6466C23.4504 10.8038 22.5456 9.11108 21.217 7.78249C19.8884 6.45389 18.1957 5.5491 16.3528 5.18254C14.51 4.81598 12.5999 5.00411 10.864 5.72314C9.12809 6.44218 7.64439 7.65982 6.60052 9.22208C5.55664 10.7843 4.99948 12.6211 4.99948 14.5C5.00233 17.0187 6.00413 19.4334 7.78511 21.2144C9.56609 22.9953 11.9808 23.9972 14.4995 24Z" fill="#8338EC"/>
</svg>
