<svg width="32" height="32" viewBox="0 0 32 32" fill="none" xmlns="http://www.w3.org/2000/svg">
<path d="M13.0002 5H7.00024C5.89567 5 5.00024 5.89543 5.00024 7V13C5.00024 14.1046 5.89567 15 7.00024 15H13.0002C14.1048 15 15.0002 14.1046 15.0002 13V7C15.0002 5.89543 14.1048 5 13.0002 5Z" fill="#8338EC"/>
<path d="M13.0002 17H7.00024C5.89567 17 5.00024 17.8954 5.00024 19V25C5.00024 26.1046 5.89567 27 7.00024 27H13.0002C14.1048 27 15.0002 26.1046 15.0002 25V19C15.0002 17.8954 14.1048 17 13.0002 17Z" fill="#8338EC"/>
<path d="M25.0002 5H19.0002C17.8957 5 17.0002 5.89543 17.0002 7V13C17.0002 14.1046 17.8957 15 19.0002 15H25.0002C26.1048 15 27.0002 14.1046 27.0002 13V7C27.0002 5.89543 26.1048 5 25.0002 5Z" fill="#8338EC"/>
<path d="M18.0002 23C18.2655 23 18.5198 22.8946 18.7073 22.7071C18.8949 22.5196 19.0002 22.2652 19.0002 22V18C19.0002 17.7348 18.8949 17.4804 18.7074 17.2929C18.5198 17.1054 18.2655 17 18.0002 17C17.735 17 17.4807 17.1054 17.2931 17.2929C17.1056 17.4804 17.0002 17.7348 17.0002 18V22C17.0003 22.2652 17.1056 22.5196 17.2932 22.7071C17.4807 22.8946 17.735 23 18.0002 23Z" fill="#8338EC"/>
<path d="M26.0002 19H23.0002V18C23.0002 17.7348 22.8949 17.4804 22.7074 17.2929C22.5198 17.1054 22.2655 17 22.0002 17C21.735 17 21.4807 17.1054 21.2931 17.2929C21.1056 17.4804 21.0002 17.7348 21.0002 18V25H18.0002C17.735 25 17.4807 25.1054 17.2931 25.2929C17.1056 25.4804 17.0002 25.7348 17.0002 26C17.0002 26.2652 17.1056 26.5196 17.2931 26.7071C17.4807 26.8946 17.735 27 18.0002 27H22.0002C22.2655 27 22.5198 26.8946 22.7073 26.7071C22.8949 26.5196 23.0002 26.2652 23.0002 26V21H26.0002C26.2655 21 26.5198 20.8946 26.7074 20.7071C26.8949 20.5196 27.0002 20.2652 27.0002 20C27.0002 19.7348 26.8949 19.4804 26.7074 19.2929C26.5198 19.1054 26.2655 19 26.0002 19Z" fill="#8338EC"/>
<path d="M26.0002 23C25.735 23 25.4807 23.1054 25.2932 23.2929C25.1056 23.4804 25.0003 23.7348 25.0002 24V26C25.0002 26.2652 25.1056 26.5196 25.2931 26.7071C25.4807 26.8946 25.735 27 26.0002 27C26.2655 27 26.5198 26.8946 26.7074 26.7071C26.8949 26.5196 27.0002 26.2652 27.0002 26V24C27.0002 23.7348 26.8949 23.4804 26.7073 23.2929C26.5198 23.1054 26.2655 23 26.0002 23Z" fill="#8338EC"/>
</svg>
